<svg id="Layer_1" data-name="Layer 1" xmlns="http://www.w3.org/2000/svg" xmlns:xlink="http://www.w3.org/1999/xlink" viewBox="0 0 232.63 237.27"><defs><style>.cls-1{fill:#00b3b2;}.cls-14,.cls-2,.cls-5,.cls-8{fill:none;}.cls-10,.cls-11,.cls-12,.cls-13,.cls-2,.cls-3,.cls-4,.cls-5,.cls-6,.cls-7,.cls-8,.cls-9{stroke:#010101;stroke-miterlimit:10;}.cls-2{stroke-width:3.71px;stroke-dasharray:11.82 11.82;}.cls-13,.cls-3{fill:#010101;}.cls-14,.cls-3,.cls-8{stroke-linecap:round;}.cls-10,.cls-11,.cls-12,.cls-3,.cls-8,.cls-9{stroke-width:4px;}.cls-4{fill:#d9c8ae;}.cls-4,.cls-5,.cls-6{stroke-width:5px;}.cls-6,.cls-7{fill:#fff;}.cls-7{stroke-width:8px;}.cls-9{fill:#231f20;}.cls-10{fill:url(#radial-gradient);}.cls-11{fill:url(#radial-gradient-2);}.cls-12{fill:url(#radial-gradient-3);}.cls-13{stroke-width:0.18px;}.cls-14{stroke:#231f20;stroke-linejoin:round;stroke-width:3px;}</style><radialGradient id="radial-gradient" cx="508.27" cy="419.17" r="26.32" gradientTransform="matrix(-1, 0, 0, 1, 682.66, -307.59)" gradientUnits="userSpaceOnUse"><stop offset="0" stop-color="#dcf1f6" stop-opacity="0"/><stop offset="0.17" stop-color="#daf0f6" stop-opacity="0.01"/><stop offset="0.31" stop-color="#d5eff4" stop-opacity="0.06"/><stop offset="0.43" stop-color="#cbebf3" stop-opacity="0.14"/><stop offset="0.56" stop-color="#bee7f0" stop-opacity="0.25"/><stop offset="0.67" stop-color="#ace1ec" stop-opacity="0.39"/><stop offset="0.78" stop-color="#97dbe8" stop-opacity="0.56"/><stop offset="0.89" stop-color="#7ed3e3" stop-opacity="0.76"/><stop offset="1" stop-color="#62c9dd" stop-opacity="0.99"/><stop offset="1" stop-color="#61c9dd"/></radialGradient><radialGradient id="radial-gradient-2" cx="567.65" cy="424.71" r="26.32" gradientTransform="matrix(-1, 0, 0, 1, 682.66, -307.59)" gradientUnits="userSpaceOnUse"><stop offset="0" stop-color="#dcf1f6" stop-opacity="0"/><stop offset="0.19" stop-color="#daf0f6" stop-opacity="0.01"/><stop offset="0.33" stop-color="#d5eff5" stop-opacity="0.06"/><stop offset="0.45" stop-color="#ccecf3" stop-opacity="0.13"/><stop offset="0.57" stop-color="#bfe8f0" stop-opacity="0.23"/><stop offset="0.68" stop-color="#afe2ed" stop-opacity="0.37"/><stop offset="0.78" stop-color="#9bdce9" stop-opacity="0.53"/><stop offset="0.88" stop-color="#83d4e4" stop-opacity="0.72"/><stop offset="0.98" stop-color="#68cbde" stop-opacity="0.94"/><stop offset="1" stop-color="#61c9dd"/></radialGradient><radialGradient id="radial-gradient-3" cx="537.55" cy="422.12" r="3.59" gradientTransform="matrix(-1, 0, 0, 1, 863.85, 0)" xlink:href="#radial-gradient-2"/></defs><ellipse class="cls-1" cx="116.31" cy="113.12" rx="114.46" ry="111.27"/><ellipse class="cls-2" cx="116.31" cy="113.12" rx="114.46" ry="111.27"/><path id="Cheveux" class="cls-3" d="M365.14,380.64S353.88,292,245.05,351.1c0,0,12.2-16.62,0-26.77s-26.27-.92-26.27-.92-13.13,13.84-9.38,29.53-20.64,4.62-21.58-5.53-5.63,35.07,31,21.23c0,0-8.76,63.07,30.44,70.87l12.09-13.13S273,359.1,365.14,380.64Z" transform="translate(-181.19 -307.59)"/><g id="Corsp"><path id="Corps" class="cls-4" d="M243.22,533.33s-27.9.5-5.74-45.17c0,0,9.84-25.61,28.71-24.81,0,0-3.07-5-7-10.92,0,0-10.26,3.17-16.82-9.14s6.95-20.81,6.95-20.81,5.33-.5,11.07,5.85c0,0,1.26-28.32,11.11-43s81.64-19.06,92.2-7.74c0,0,12.41,53.4,9.54,60.55S353.58,463.35,340,467.52c0,0,11.46,11.58,35.77,24.5,0,0,10.7,18.54-35.08,12,0,0-.74,17.83,1.31,31.73" transform="translate(-181.19 -307.59)"/><path class="cls-5" d="M252.42,500.64s-7.33,19.24-9.2,32.69" transform="translate(-181.19 -307.59)"/></g><g id="Robe"><path id="Robe-2" data-name="Robe" class="cls-6" d="M339.81,467.71s-14.62,1.23-16.15,2.77c-11.1,11.1-31.49,11-40.62-2.31-2-2.92-12.38.35-17.85-5.53,0,0-22.64.72-33.71,35.6,0,0,5.33,9,18.87,8.2,0,0-6.62,18.28-6.62,32.23,0,0,67.08,10.31,98.15-3.54,0,0-1.69-5.3-.05-30.33,0,0,15.3.55,15.18.38-2.46-3.61-6.25-9.74,3.28-22.46C360.29,482.72,343,469.73,339.81,467.71Z" transform="translate(-181.19 -307.59)"/><path class="cls-7" d="M339.73,525.29s-57.38,10.15-94.61,1.38" transform="translate(-181.19 -307.59)"/><path class="cls-7" d="M341.65,510.58s-56.69,8.09-92.14-.4" transform="translate(-181.19 -307.59)"/></g><g id="Visage"><path id="Bouche" class="cls-8" d="M332.58,450.79s-4.7,6.09-10.44,1.16" transform="translate(-181.19 -307.59)"/><g id="Yeux"><circle class="cls-9" cx="166.32" cy="116.74" r="2.77"/><circle class="cls-9" cx="119.85" cy="119.82" r="2.77"/></g></g><g id="Lunettes"><ellipse class="cls-10" cx="174.39" cy="111.59" rx="25.38" ry="27.23"/><ellipse class="cls-11" cx="115.01" cy="117.13" rx="25.38" ry="27.23"/><path class="cls-12" d="M331.22,422.51s-4.1-4.1-9.85.82" transform="translate(-181.19 -307.59)"/></g><circle id="Grain_de_beauté" data-name="Grain de beauté" class="cls-13" cx="103.16" cy="132.47" r="2"/><path class="cls-14" d="M292,485" transform="translate(-181.19 -307.59)"/></svg>